# xmcd
#
# Track frame offsets:
#	150
#	21335
#	37992
#	53587
#	69113
#	85543
#	98362
#	108657
#	126937
#	141713
#	151997
#	160715
#	180786
#	196542
#	207539
#	228495
#	239361
#	251134
#	266950
#	273359
#	281230
#	301324
#	329217
#
# Disc length: 4581 seconds
#
# Revision: 0
# Processed by: cddbd v1.4PL0 Copyright (c) Steve Scherf et al.
# Submitted via: EasyCDDAExtractor 4.6.0.1
#
DISCID=4611e317
DTITLE=Jack Johnson - Live House Of Blues
DYEAR=2002
DGENRE=Roots
TTITLE0=Posters (Instrumental Jam)
TTITLE1=Middle Man
TTITLE2=Holes To Heaven
TTITLE3=Fortunate Fool
TTITLE4=Its All Understood
TTITLE5=Sexy Plexi (Just What I Needed)
TTITLE6=Haleiwa
TTITLE7=Bubble Toes
TTITLE8=Nightmares
TTITLE9=On And On
TTITLE10=Trenchtown Rock
TTITLE11=Inaudible Melodies
TTITLE12=Rodeo Clowns
TTITLE13=Who Do You Love?
TTITLE14=Mudfootball
TTITLE15=Gone
TTITLE16=Pirate Looks At 40
TTITLE17=Plastic Jesus - Fall Line
TTITLE18=High Tide Low Tide
TTITLE19=Cissy Strut
TTITLE20=Who Knows
TTITLE21=Flake
TTITLE22=Walk On The Ocean
EXTD=
EXTT0=
EXTT1=
EXTT2=
EXTT3=
EXTT4=
EXTT5=
EXTT6=
EXTT7=
EXTT8=
EXTT9=
EXTT10=
EXTT11=
EXTT12=
EXTT13=
EXTT14=
EXTT15=
EXTT16=
EXTT17=
EXTT18=
EXTT19=
EXTT20=
EXTT21=
EXTT22=
PLAYORDER=
